<?xml version='1.0' encoding='iso-8859-1'?>
<svg version="1.1" xmlns="http://www.w3.org/2000/svg" viewBox="0 0 137.145 137.145" xmlns:xlink="http://www.w3.org/1999/xlink" enable-background="new 0 0 137.145 137.145">
  <g>
    <g>
      <path d="M27.429,61.715v6.858h6.857v27.429h-6.857v13.714h82.287V96.001h-6.857V68.572h6.857v-6.858L68.572,27.429L27.429,61.715z     M61.715,96.001H48V68.572h13.714V96.001z M75.429,68.572h13.714v27.429H75.429V68.572z M109.715,0H27.429    C12.281,0,0,12.28,0,27.429v82.286c0,15.149,12.28,27.429,27.429,27.429h82.286c15.149,0,27.429-12.28,27.429-27.429V27.429    C137.144,12.28,124.864,0,109.715,0z M123.43,102.859c0,11.361-9.21,20.571-20.571,20.571H34.286    c-11.361,0-20.572-9.21-20.572-20.571V34.286c0-11.361,9.21-20.571,20.572-20.571h68.572c11.361,0,20.571,9.21,20.571,20.571    V102.859z"/>
    </g>
  </g>
</svg>
