<?xml version="1.0" encoding="iso-8859-1"?>
<!-- Generator: Adobe Illustrator 19.0.0, SVG Export Plug-In . SVG Version: 6.00 Build 0)  -->
<svg version="1.1" id="Layer_1" xmlns="http://www.w3.org/2000/svg" xmlns:xlink="http://www.w3.org/1999/xlink" x="0px" y="0px"
	 viewBox="0 0 512 512" style="enable-background:new 0 0 512 512;" xml:space="preserve">
<g>
	<g>
		<g>
			<path d="M443.675,0H69.041c-6.896,0-12.846,5.786-12.846,12.683v487.024c0,6.897,5.95,12.293,12.846,12.293h374.634
				c6.896,0,12.129-5.396,12.129-12.293V12.683C455.805,5.786,450.573,0,443.675,0z M313.444,24.976h43.707v97.816l-15.805-8.687
				c-1.861-1.013-3.836-1.518-5.892-1.518c-2.062,0-4.241,0.511-6.108,1.531l-15.903,8.629V24.976z M124.878,487.024H81.171V24.976
				h43.707V487.024z M430.829,487.024H149.854V24.976h138.615v118.829c0,4.409,2.481,8.492,6.274,10.742
				c3.794,2.249,8.57,2.33,12.438,0.216l28.327-15.464l28.455,15.476c1.863,1.014,3.927,1.518,5.979,1.518
				c2.209,0,4.265-0.586,6.228-1.752c3.788-2.25,5.958-6.33,5.958-10.736V24.976h48.702V487.024z"/>
			<path d="M234.771,236.02h112.39c6.896,0,12.488-5.591,12.488-12.488c0-6.897-5.592-12.488-12.488-12.488h-112.39
				c-6.896,0-12.488,5.591-12.488,12.488C222.283,230.429,227.875,236.02,234.771,236.02z"/>
			<path d="M372.137,275.98H209.795c-6.896,0-12.488,5.591-12.488,12.488c0,6.897,5.592,12.488,12.488,12.488h162.341
				c6.896,0,12.488-5.591,12.488-12.488C384.624,281.571,379.032,275.98,372.137,275.98z"/>
		</g>
	</g>
</g>
<g>
</g>
<g>
</g>
<g>
</g>
<g>
</g>
<g>
</g>
<g>
</g>
<g>
</g>
<g>
</g>
<g>
</g>
<g>
</g>
<g>
</g>
<g>
</g>
<g>
</g>
<g>
</g>
<g>
</g>
</svg>
