<?xml version="1.0" encoding="iso-8859-1"?>
<!-- Generator: Adobe Illustrator 19.0.0, SVG Export Plug-In . SVG Version: 6.00 Build 0)  -->
<svg version="1.1" id="Layer_1" xmlns="http://www.w3.org/2000/svg" xmlns:xlink="http://www.w3.org/1999/xlink" x="0px" y="0px"
	 viewBox="0 0 512 512" style="enable-background:new 0 0 512 512;" xml:space="preserve">
<g>
	<g>
		<path d="M508.624,247.851L386.392,125.607L264.149,3.375c-4.5-4.5-11.797-4.5-16.298,0L125.607,125.607L3.375,247.851
			c-4.5,4.5-4.5,11.797,0,16.298l122.232,122.243l122.243,122.232c2.251,2.251,5.2,3.376,8.149,3.376s5.898-1.125,8.149-3.376
			l122.243-122.232l122.232-122.243C513.125,259.648,513.125,252.352,508.624,247.851z M256,27.823l105.944,105.935l-37.488,37.488
			c-2.161,2.161-3.376,5.093-3.376,8.149c0,3.056,1.215,5.988,3.376,8.149l12.078,12.078c2.312,2.312,5.495,3.529,8.763,3.359
			c6.524-0.349,12.731,1.91,17.016,6.195c8.763,8.762,8.763,23.021,0,31.783c-8.762,8.763-23.021,8.763-31.782,0
			c-5.889-5.888-6.812-14.075-6.937-17.322c-0.111-2.903-1.314-5.656-3.366-7.71l-12.078-12.078c-2.251-2.251-5.2-3.376-8.149-3.376
			c-2.949,0-5.9,1.125-8.149,3.376L256,239.701l-28.526-28.525l0.658-0.658c8.06-0.95,19.471-3.969,28.411-12.924
			c17.749-17.749,17.749-46.63,0-64.381c-8.598-8.598-20.03-13.333-32.19-13.333s-23.592,4.736-32.197,13.34
			c-7.919,7.931-12.514,17.975-13.239,28.724l-0.337,0.337l-28.524-28.525L256,27.823z M27.823,256l105.935-105.944l36.67,36.67
			c4.499,4.499,11.793,4.5,16.295,0.003l11.813-11.801c2.315-2.313,3.538-5.5,3.363-8.768c-0.33-6.167,2.004-12.081,6.565-16.649
			c8.762-8.762,23.021-8.762,31.782,0c4.245,4.245,6.582,9.888,6.582,15.892s-2.337,11.647-6.589,15.898
			c-5.518,5.526-14.202,6.42-17.679,6.548c-2.91,0.107-5.671,1.312-7.73,3.371l-11.801,11.813
			c-4.497,4.502-4.496,11.796,0.003,16.295l36.671,36.671l-28.525,28.525l-0.658-0.658c-0.95-8.06-3.969-19.471-12.924-28.411
			c-8.598-8.597-20.03-13.333-32.19-13.333c-12.161,0-23.592,4.736-32.19,13.333c-8.599,8.597-13.333,20.03-13.333,32.19
			s4.734,23.592,13.34,32.197c7.933,7.92,17.974,12.515,28.724,13.24l0.337,0.336l-28.524,28.524L27.823,256z M256,484.177
			L150.056,378.243l36.67-36.67c4.499-4.499,4.5-11.793,0.003-16.295l-11.801-11.813c-2.312-2.315-5.5-3.534-8.768-3.363
			c-6.159,0.33-12.081-2.004-16.649-6.565c-4.245-4.245-6.582-9.888-6.582-15.892c0-6.003,2.337-11.647,6.582-15.891
			c4.245-4.245,9.888-6.582,15.892-6.582s11.647,2.337,15.897,6.589c5.526,5.518,6.42,14.202,6.548,17.679
			c0.107,2.91,1.312,5.671,3.371,7.73l11.813,11.801c4.502,4.497,11.794,4.495,16.295-0.003l36.671-36.671l27.703,27.703
			l-0.957,0.957c-10.819,1.396-20.833,6.105-28.004,13.275c-8.597,8.597-13.333,20.03-13.333,32.19s4.736,23.592,13.333,32.19
			s20.03,13.333,32.19,13.333c12.161,0,23.592-4.736,32.191-13.333c7.661-7.662,12.215-18.054,12.893-29.12l0.59-0.59l29.339,29.339
			L256,484.177z M378.242,361.944l-37.488-37.489c-2.161-2.161-5.093-3.376-8.149-3.376s-5.988,1.215-8.149,3.376l-12.077,12.078
			c-2.312,2.312-3.534,5.498-3.359,8.763c0.348,6.529-1.91,12.731-6.195,17.016c-8.761,8.763-23.02,8.763-31.783,0
			c-8.763-8.762-8.763-23.02,0-31.782c5.888-5.889,14.075-6.812,17.322-6.937c2.903-0.111,5.656-1.314,7.71-3.366l12.078-12.078
			c4.5-4.5,4.5-11.798,0-16.298l-35.852-35.852l27.703-27.703l0.956,0.957c1.396,10.819,6.105,20.833,13.275,28.004
			c8.597,8.597,20.03,13.333,32.19,13.333s23.592-4.736,32.19-13.333c8.598-8.598,13.333-20.03,13.333-32.19
			c0-12.161-4.736-23.592-13.333-32.191c-7.662-7.662-18.052-12.216-29.12-12.893l-0.59-0.59l29.339-29.339l105.935,105.944
			L378.242,361.944z"/>
	</g>
</g>
<g>
</g>
<g>
</g>
<g>
</g>
<g>
</g>
<g>
</g>
<g>
</g>
<g>
</g>
<g>
</g>
<g>
</g>
<g>
</g>
<g>
</g>
<g>
</g>
<g>
</g>
<g>
</g>
<g>
</g>
</svg>
