<?xml version="1.0" encoding="iso-8859-1"?>
<!-- Generator: Adobe Illustrator 19.0.0, SVG Export Plug-In . SVG Version: 6.00 Build 0)  -->
<svg version="1.1" id="Layer_1" xmlns="http://www.w3.org/2000/svg" xmlns:xlink="http://www.w3.org/1999/xlink" x="0px" y="0px"
	 viewBox="0 0 479.999 479.999" style="enable-background:new 0 0 479.999 479.999;" xml:space="preserve">
<g>
	<g>
		<g>
			<path d="M479.959,151.415c-0.008-0.087-0.024-0.171-0.033-0.257c-0.025-0.221-0.054-0.442-0.094-0.66
				c-0.026-0.142-0.06-0.281-0.093-0.421c-0.036-0.158-0.072-0.315-0.116-0.471c-0.042-0.152-0.091-0.3-0.14-0.449
				c-0.047-0.141-0.096-0.281-0.149-0.42c-0.057-0.148-0.116-0.294-0.18-0.438c-0.06-0.138-0.125-0.274-0.191-0.41
				c-0.067-0.136-0.135-0.271-0.207-0.403c-0.079-0.143-0.164-0.282-0.25-0.421c-0.073-0.118-0.145-0.238-0.223-0.353
				c-0.102-0.151-0.213-0.296-0.323-0.442c-0.073-0.097-0.143-0.196-0.22-0.29c-0.013-0.016-0.023-0.033-0.036-0.048l-68.992-83.367
				c-1.899-2.296-4.725-3.624-7.704-3.624H10c-5.523,0-10,4.477-10,10v298.992c0,5.523,4.477,10,10,10h288.992v32.32
				c0,3.735,2.081,7.159,5.397,8.878c3.317,1.718,7.313,1.447,10.365-0.706l27.579-19.447l30.058,20.359
				c1.686,1.143,3.645,1.721,5.609,1.721c1.604,0,3.215-0.386,4.685-1.166c3.27-1.734,5.314-5.133,5.314-8.834v-33.125h82
				c5.522,0,10-4.477,10-10V152.307C480,152.008,479.985,151.71,479.959,151.415z M411.008,96.708l37.553,45.377l-37.553-0.387
				V96.708z M368,392.205l-20.172-13.663c-3.444-2.332-7.972-2.289-11.371,0.107l-17.465,12.315v-66.148
				c7.778,2.29,16.005,3.525,24.516,3.525c8.502,0,16.721-1.233,24.492-3.52V392.205z M343.508,308.342
				c-36.897,0-66.914-30.012-66.914-66.902c0-36.895,30.018-66.91,66.914-66.91c36.884,0,66.891,30.016,66.891,66.91
				C410.398,278.33,380.392,308.342,343.508,308.342z M460,357.931h-72v-41.874c25.373-15.191,42.398-42.951,42.398-74.617
				c0-47.922-38.979-86.91-86.891-86.91c-47.925,0-86.914,38.988-86.914,86.91c0,31.661,17.024,59.418,42.398,74.61v41.882H20
				V78.939h371.008v72.656c0,5.482,4.415,9.943,9.896,9.999l59.096,0.61V357.931z"/>
			<path d="M205.5,127.932h-161c-5.523,0-10,4.477-10,10c0,5.523,4.477,10,10,10h161c5.523,0,10-4.477,10-10
				C215.5,132.409,211.023,127.932,205.5,127.932z"/>
			<path d="M205.5,173.939h-161c-5.523,0-10,4.477-10,10s4.477,10,10,10h161c5.523,0,10-4.477,10-10
				C215.5,178.417,211.023,173.939,205.5,173.939z"/>
			<path d="M205.5,219.936h-161c-5.523,0-10,4.477-10,10s4.477,10,10,10h161c5.523,0,10-4.477,10-10S211.023,219.936,205.5,219.936z
				"/>
			<path d="M205.5,265.936h-161c-5.523,0-10,4.477-10,10s4.477,10,10,10h161c5.523,0,10-4.477,10-10S211.023,265.936,205.5,265.936z
				"/>
			<path d="M343.508,201.967c-21.768,0-39.477,17.708-39.477,39.473c0,21.759,17.709,39.461,39.477,39.461
				c21.759,0,39.461-17.702,39.461-39.461C382.969,219.674,365.267,201.967,343.508,201.967z M343.508,260.9
				c-10.739,0-19.477-8.73-19.477-19.461c0-10.737,8.737-19.473,19.477-19.473c10.73,0,19.461,8.735,19.461,19.473
				C362.969,252.17,354.238,260.9,343.508,260.9z"/>
		</g>
	</g>
</g>
<g>
</g>
<g>
</g>
<g>
</g>
<g>
</g>
<g>
</g>
<g>
</g>
<g>
</g>
<g>
</g>
<g>
</g>
<g>
</g>
<g>
</g>
<g>
</g>
<g>
</g>
<g>
</g>
<g>
</g>
</svg>
